<?xml version="1.0" encoding="utf-8"?>
<!-- Generator: Adobe Illustrator 24.0.3, SVG Export Plug-In . SVG Version: 6.00 Build 0)  -->
<svg version="1.1" id="Layer_1" xmlns="http://www.w3.org/2000/svg" xmlns:xlink="http://www.w3.org/1999/xlink" x="0px" y="0px"
	 viewBox="0 0 214.9 217.7" style="enable-background:new 0 0 214.9 217.7;" xml:space="preserve">
<style type="text/css">
	.st0{fill:#FFFFFF;stroke:#231F20;stroke-width:11;}
	.st1{opacity:0.748;fill-rule:evenodd;clip-rule:evenodd;fill:#FFD1F7;enable-background:new    ;}
	.st2{fill-rule:evenodd;clip-rule:evenodd;fill:#231F20;}
</style>
<title>Page 1 Copy 9</title>
<desc>Created with Sketch.</desc>
<g id="Style-Guide">
	<g id="Artboard-Copy-4" transform="translate(-98.000000, -673.000000)">
		<g id="Page-1-Copy-9" transform="translate(102.000000, 678.000000)">
			<path id="Stroke-3" class="st0" d="M159.4,198.4c0.6,0.7,1.7,0.6,2.2-0.2c5.3-7.7,31-48.1,35.3-83c7.1-58.2-31.2-107-91.3-107
				S2.6,55.3,9.9,115.2c5.4,43.5,31.4,77.6,36.2,83.5c0.6,0.7,1.6,0.7,2.2,0l17.2-22.9c0.6-0.7,1.8-0.6,2.3,0.1l15.6,22.8
				c0.5,0.8,1.7,0.9,2.3,0.1l17.5-21.6c0.6-0.7,1.8-0.7,2.3,0.1l15.3,21.4c0.6,0.8,1.8,0.8,2.4,0l16.2-23.3c0.5-0.8,1.6-0.8,2.2-0.2
				L159.4,198.4z"/>
			<path id="Fill-5" class="st1" d="M130.7,86.2c-19.3,1.1-34.6,7.8-34.2,15c0.4,7.2,16.3,12.2,35.6,11.1c19.3-1.1,34.6-7.8,34.2-15
				S149.9,85.2,130.7,86.2z"/>
			<path id="Fill-7" class="st2" d="M118.6,87.4c0,3.8-2.6,7-5.9,7c-3.2,0-5.9-3.1-5.9-7s2.6-7,5.9-7
				C116,80.5,118.6,83.6,118.6,87.4"/>
			<path id="Fill-9" class="st2" d="M156.9,84.5c0,5-3.2,9-7.1,9c-3.9,0-7.1-4-7.1-9s3.2-9,7.1-9C153.8,75.5,156.9,79.5,156.9,84.5"
				/>
		</g>
	</g>
</g>
</svg>
